<?xml version="1.0" standalone="no"?>
<!DOCTYPE svg PUBLIC "-//W3C//DTD SVG 20010904//EN"
 "http://www.w3.org/TR/2001/REC-SVG-20010904/DTD/svg10.dtd">
<svg version="1.0" xmlns="http://www.w3.org/2000/svg"
 width="950.000000pt" height="950.000000pt" viewBox="0 0 950.000000 950.000000"
 preserveAspectRatio="xMidYMid meet">
<metadata>
Created by potrace 1.14, written by Peter Selinger 2001-2017
</metadata>
<g transform="translate(0.000000,950.000000) scale(0.100000,-0.100000)"
fill="#000000" stroke="none">
<path d="M893 6362 l-63 -3 0 -1653 c0 -1314 3 -1655 13 -1658 6 -2 102 -3
212 -3 l200 1 3 627 c1 346 5 626 10 624 26 -17 322 -21 1477 -20 1190 0 1305
1 1365 17 63 16 140 45 150 56 3 3 11 6 18 8 49 10 207 167 245 243 57 113 57
116 57 719 0 345 -4 572 -11 600 -19 84 -76 185 -139 249 -55 55 -165 129
-182 123 -5 -1 -8 3 -8 9 0 5 -4 7 -10 4 -5 -3 -10 -1 -10 5 0 6 -5 8 -11 4
-6 -3 -14 -2 -18 4 -4 7 -18 14 -31 16 -14 2 -25 5 -25 6 0 1 -13 4 -80 15
-32 6 -3056 12 -3162 7z m3087 -392 c0 -4 13 -6 30 -5 17 1 30 -2 30 -7 0 -5
4 -7 9 -4 5 4 27 -14 49 -40 35 -39 41 -54 47 -107 3 -34 5 -276 3 -537 -3
-516 -1 -497 -62 -552 -29 -26 -40 -32 -58 -29 -5 0 -8 -3 -8 -9 0 -7 -443
-10 -1310 -10 -1269 0 -1312 1 -1348 19 -49 25 -80 60 -92 102 -6 20 -10 240
-10 537 0 558 -2 540 66 602 25 22 48 33 82 37 26 3 48 7 50 8 7 6 2522 2
2522 -5z"/>
<path d="M5587 6363 c-1 -1 -44 -3 -94 -5 -51 -1 -93 -7 -93 -11 0 -5 -4 -6
-8 -3 -5 3 -20 -1 -35 -9 -15 -8 -27 -11 -27 -8 0 3 -6 0 -13 -6 -8 -6 -17 -8
-20 -4 -4 3 -7 1 -7 -6 0 -7 -4 -9 -10 -6 -5 3 -10 1 -10 -5 0 -6 -4 -9 -9 -5
-5 3 -12 1 -16 -5 -4 -6 -11 -8 -16 -5 -5 4 -9 2 -9 -3 0 -6 -19 -21 -43 -35
-89 -52 -184 -175 -216 -281 -21 -68 -21 -77 -21 -1257 l0 -1188 23 -74 c13
-41 38 -94 54 -118 57 -81 187 -199 220 -199 7 0 13 -5 13 -12 0 -6 3 -9 6 -5
4 3 23 -2 43 -12 35 -18 131 -48 161 -50 60 -5 2667 -3 2711 2 30 3 87 19 127
35 39 16 74 27 77 24 3 -3 5 0 5 6 0 7 6 12 13 12 23 0 178 142 212 194 19 29
44 80 57 112 l23 59 3 656 3 656 -681 -1 -680 0 0 -193 c0 -147 3 -193 13
-194 6 -1 215 -2 462 -3 l450 -1 3 -404 c1 -255 -2 -417 -8 -442 -17 -61 -66
-112 -123 -126 -40 -10 -2600 -10 -2632 0 -35 11 -91 61 -111 99 -12 23 -14
203 -14 1163 0 1010 2 1141 16 1170 20 43 60 78 106 92 26 8 402 10 1340 9
l1303 -1 33 -21 c63 -41 84 -86 90 -191 l5 -93 213 0 214 0 0 98 c0 124 -26
231 -74 307 -34 52 -165 189 -174 181 -2 -2 -20 7 -40 21 -20 13 -49 27 -64
30 -16 3 -28 10 -28 15 0 5 -4 6 -10 3 -5 -3 -10 -2 -10 4 0 6 -7 8 -15 5 -8
-4 -15 -1 -15 5 0 6 -7 8 -15 5 -8 -4 -15 -2 -15 2 0 5 -37 10 -83 12 -82 3
-2557 8 -2560 5z"/>
</g>
</svg>
