<svg xmlns="http://www.w3.org/2000/svg" data-name="Layer 1" viewBox="0 0 100 125" x="0px" y="0px"><title>Artboard 29</title><path d="M98.42,86.75H95.68v-68a1.27,1.27,0,0,0-1.27-1.27H77.14a1.27,1.27,0,0,0-1.27,1.27v68H71.15V7.94a1.27,1.27,0,0,0-1.27-1.27H30.12a1.27,1.27,0,0,0-1.27,1.27V86.75H24.13v-68a1.27,1.27,0,0,0-1.27-1.27H5.58a1.27,1.27,0,0,0-1.27,1.27v68H1.58A1.28,1.28,0,0,0,.3,88v4a1.28,1.28,0,0,0,1.28,1.28H98.42a1.28,1.28,0,0,0,1.28-1.28V88A1.28,1.28,0,0,0,98.42,86.75ZM17.48,72.53a1.27,1.27,0,0,1-1.27,1.27h-4A1.27,1.27,0,0,1,11,72.53v-4a1.27,1.27,0,0,1,1.27-1.27h4a1.27,1.27,0,0,1,1.27,1.27Zm0-10.77A1.27,1.27,0,0,1,16.21,63h-4A1.27,1.27,0,0,1,11,61.75v-4a1.27,1.27,0,0,1,1.27-1.27h4a1.27,1.27,0,0,1,1.27,1.27Zm0-10.78a1.27,1.27,0,0,1-1.27,1.27h-4A1.27,1.27,0,0,1,11,51V47a1.27,1.27,0,0,1,1.27-1.27h4A1.27,1.27,0,0,1,17.48,47Zm0-10.77a1.27,1.27,0,0,1-1.27,1.27h-4A1.27,1.27,0,0,1,11,40.2v-4A1.27,1.27,0,0,1,12.23,35h4a1.27,1.27,0,0,1,1.27,1.27Zm0-10.78a1.27,1.27,0,0,1-1.27,1.27h-4A1.27,1.27,0,0,1,11,29.43v-4a1.27,1.27,0,0,1,1.27-1.27h4a1.27,1.27,0,0,1,1.27,1.27ZM46.74,14.66A1.26,1.26,0,0,1,48,13.4h4a1.26,1.26,0,0,1,1.26,1.26v4A1.26,1.26,0,0,1,52,19.92H48a1.26,1.26,0,0,1-1.26-1.26Zm0,10.77A1.26,1.26,0,0,1,48,24.18h4a1.26,1.26,0,0,1,1.26,1.26v4A1.26,1.26,0,0,1,52,30.7H48a1.26,1.26,0,0,1-1.26-1.26Zm0,10.78A1.26,1.26,0,0,1,48,35h4a1.26,1.26,0,0,1,1.26,1.26v4A1.26,1.26,0,0,1,52,41.47H48a1.26,1.26,0,0,1-1.26-1.26Zm0,10.77A1.26,1.26,0,0,1,48,45.73h4A1.26,1.26,0,0,1,53.26,47v4A1.26,1.26,0,0,1,52,52.25H48A1.26,1.26,0,0,1,46.74,51Zm0,10.77A1.26,1.26,0,0,1,48,56.5h4a1.26,1.26,0,0,1,1.26,1.26v4A1.26,1.26,0,0,1,52,63H48a1.26,1.26,0,0,1-1.26-1.26ZM35.5,14.66a1.26,1.26,0,0,1,1.26-1.26h4A1.26,1.26,0,0,1,42,14.66v4a1.26,1.26,0,0,1-1.26,1.26h-4a1.26,1.26,0,0,1-1.26-1.26Zm0,10.77a1.26,1.26,0,0,1,1.26-1.26h4A1.26,1.26,0,0,1,42,25.44v4a1.26,1.26,0,0,1-1.26,1.26h-4a1.26,1.26,0,0,1-1.26-1.26Zm0,10.78A1.26,1.26,0,0,1,36.76,35h4A1.26,1.26,0,0,1,42,36.21v4a1.26,1.26,0,0,1-1.26,1.26h-4a1.26,1.26,0,0,1-1.26-1.26ZM35.5,47a1.26,1.26,0,0,1,1.26-1.26h4A1.26,1.26,0,0,1,42,47v4a1.26,1.26,0,0,1-1.26,1.26h-4A1.26,1.26,0,0,1,35.5,51Zm5.26,16h-4a1.26,1.26,0,0,1-1.26-1.26v-4a1.26,1.26,0,0,1,1.26-1.26h4A1.26,1.26,0,0,1,42,57.76v4A1.26,1.26,0,0,1,40.76,63ZM58,86.75H42V69.33a1.27,1.27,0,0,1,1.27-1.27H56.71A1.27,1.27,0,0,1,58,69.33Zm6.52-25A1.26,1.26,0,0,1,63.24,63h-4A1.26,1.26,0,0,1,58,61.76v-4a1.26,1.26,0,0,1,1.26-1.26h4a1.26,1.26,0,0,1,1.26,1.26ZM64.5,51a1.26,1.26,0,0,1-1.26,1.26h-4A1.26,1.26,0,0,1,58,51V47a1.26,1.26,0,0,1,1.26-1.26h4A1.26,1.26,0,0,1,64.5,47Zm0-10.78a1.26,1.26,0,0,1-1.26,1.26h-4A1.26,1.26,0,0,1,58,40.21v-4A1.26,1.26,0,0,1,59.24,35h4a1.26,1.26,0,0,1,1.26,1.26Zm0-10.77a1.26,1.26,0,0,1-1.26,1.26h-4A1.26,1.26,0,0,1,58,29.43v-4a1.26,1.26,0,0,1,1.26-1.26h4a1.26,1.26,0,0,1,1.26,1.26Zm0-10.78a1.26,1.26,0,0,1-1.26,1.26h-4A1.26,1.26,0,0,1,58,18.66v-4a1.26,1.26,0,0,1,1.26-1.26h4a1.26,1.26,0,0,1,1.26,1.26ZM89,72.53a1.27,1.27,0,0,1-1.27,1.27h-4a1.27,1.27,0,0,1-1.27-1.27v-4a1.27,1.27,0,0,1,1.27-1.27h4A1.27,1.27,0,0,1,89,68.54Zm0-10.77A1.27,1.27,0,0,1,87.77,63h-4a1.27,1.27,0,0,1-1.27-1.27v-4a1.27,1.27,0,0,1,1.27-1.27h4A1.27,1.27,0,0,1,89,57.77ZM89,51a1.27,1.27,0,0,1-1.27,1.27h-4A1.27,1.27,0,0,1,82.52,51V47a1.27,1.27,0,0,1,1.27-1.27h4A1.27,1.27,0,0,1,89,47ZM89,40.2a1.27,1.27,0,0,1-1.27,1.27h-4a1.27,1.27,0,0,1-1.27-1.27v-4A1.27,1.27,0,0,1,83.79,35h4A1.27,1.27,0,0,1,89,36.22Zm0-10.78a1.27,1.27,0,0,1-1.27,1.27h-4a1.27,1.27,0,0,1-1.27-1.27v-4a1.27,1.27,0,0,1,1.27-1.27h4A1.27,1.27,0,0,1,89,25.44Z"/><text x="0" y="115" fill="#000000" font-size="5px" font-weight="bold" font-family="'Helvetica Neue', Helvetica, Arial-Unicode, Arial, Sans-serif">Created by Gregor Cresnar</text><text x="0" y="120" fill="#000000" font-size="5px" font-weight="bold" font-family="'Helvetica Neue', Helvetica, Arial-Unicode, Arial, Sans-serif">from the Noun Project</text></svg>