<svg xmlns="http://www.w3.org/2000/svg" xmlns:xlink="http://www.w3.org/1999/xlink" width="196px" height="196px" viewBox="0 0 196 196" version="1.1">
    <title>WT Logo - Logomark Dark</title>
    <g id="Assets" stroke="none" stroke-width="1" fill="none" fill-rule="evenodd">
        <g id="Logo-Sheet" transform="translate(-264.000000, -670.000000)" fill="#ffffff">
            <g id="Group" transform="translate(260.000000, 668.000000)">
                <g id="mark" transform="translate(4.000000, 0.000000)">
                    <path d="M187.344186,59.9850978 C171.559765,24.8826175 136.473718,2.20216728 97.9454416,2.20216728 C87.8194202,2.20216728 77.9028875,3.76869148 68.3237418,6.829032 L76.4585181,24.0123262 C83.4355938,22.0293842 90.6287737,21.0048642 97.9454416,21.0048642 C112.664778,21.0048642 126.742418,25.1448065 138.866299,32.4618625 L117.086092,109.823041 L93.5858718,60.3177914 L72.8928002,110.047774 L57.7655121,74.6126001 L48.3958551,94.5323543 L71.6887916,149.2924 L93.6784879,100.661848 L121.361866,159.854871 L158.40167,49.0656971 C163.109653,54.6179347 167.107579,60.8575923 170.179345,67.6877259 C178.838945,86.9531093 179.478437,108.434981 171.969922,128.178474 C166.218906,143.292899 156.203142,155.992541 143.172946,165.008317 L151.307722,182.196018 C168.719539,170.968159 182.056251,154.567026 189.558151,134.854379 C198.850628,110.417923 198.063391,83.828874 187.344186,59.9850978" id="Fill-1" fill="#ffffff"/>
                    <path d="M127.689306,173.352537 C88.4884609,189.229293 43.2918287,171.347562 25.8182674,132.488509 C17.1586668,113.218719 16.5257904,91.7412533 24.0298956,71.9999638 C30.8967141,53.9485816 43.8409096,39.343112 60.7433386,30.3603846 L52.7541018,13.3004734 C31.3994869,24.3829161 15.0593696,42.6678448 6.43946161,65.324059 C-2.85301535,89.7605145 -2.06577893,116.340751 8.65563137,140.19334 C24.9472355,176.437114 60.7345181,197.952034 98.1447866,197.943221 C110.694261,197.943221 123.420148,195.490983 135.660902,190.388212 L127.689306,173.352537 Z" id="Fill-4" fill="#ffffff"/>
                </g>
            </g>
        </g>
    </g>
</svg>