<?xml version="1.0" encoding="utf-8"?>
<!-- Generator: Adobe Illustrator 16.0.0, SVG Export Plug-In . SVG Version: 6.00 Build 0)  -->
<!DOCTYPE svg PUBLIC "-//W3C//DTD SVG 1.1//EN" "http://www.w3.org/Graphics/SVG/1.1/DTD/svg11.dtd">
<svg version="1.1" id="Layer_1" xmlns="http://www.w3.org/2000/svg" xmlns:xlink="http://www.w3.org/1999/xlink" x="0px" y="0px"
	 width="797px" height="797px" viewBox="0 0 797 797" enable-background="new 0 0 797 797" xml:space="preserve">
<g transform="translate(0.000000,797.000000) scale(0.100000,-0.100000)">
	<path fill="#FFFFFF" d="M60,3865V1990h215h215v707.998v707.998l107.998-12.998c84.004-10,378.003-12.998,1397.002-10L3285,3385
		l75,22.998c109.004,34.004,175,75,265,166.006c92.002,92.998,135.996,168.994,165,281.992c19.004,73.008,20,112.002,20,708.003
		c0,668.999-0.996,676.001-49.004,793.999c-62.998,156.001-203.994,289.004-371.992,350L3315,5735l-1627.002,2.998L60,5740V3865z
		 M3255,5292.001c37.998-17.002,82.002-58.003,102.998-97.002c15-27.002,17.002-90,20-575c2.002-300,1.006-572.998-2.998-607.002
		c-7.998-75-42.002-132.002-99.004-165L3235,3825H1935H635l-42.002,22.998c-23.999,12.002-55,41.006-70,64.004L495,3954.003
		l-2.998,589.995c-3.003,662.002-5,643.999,67.998,710C583.999,5275,613.999,5291,637.002,5295c20.996,3.999,42.998,7.998,47.998,10
		c6.001,2.002,578.999,2.998,1275,2.002C2980,5305,3230.996,5302.001,3255,5292.001z"/>
	<path fill="#FFFFFF" d="M4630,5725c-210.996-58.999-382.998-230-439.004-435C4170,5216,4170,5196,4170,3869.003V2522.002l22.998-80
		c31.006-105,76.006-179.004,164.004-267.998c83.994-84.004,195-145,307.998-169.004c104.004-22.002,2655.996-22.002,2757.998,0
		c109.004,22.998,204.004,75,294.004,159.004c87.002,82.998,133.994,152.998,172.002,258.994L7915,2495l2.998,742.998l2.998,742.002
		H7240h-680v-220v-220h465h465v-462.002c0-278.994-4.004-477.002-10-498.994c-15.996-57.002-50.996-102.002-100-127.002
		L7335.996,2430H6044.003c-889.004,0-1301.006,2.998-1321.006,10.996c-37.998,14.004-80.996,56.006-103.994,101.006
		c-18.008,35.996-19.004,77.002-19.004,1325c0,1227.998,0.996,1290,19.004,1327.998c21.992,48.999,68.994,91.001,118.994,105
		c26.006,7.998,431.006,10,1327.998,7.998L7357.001,5305l40-27.998c65-45,85.996-94.004,90.996-214.004l5-102.998h212.998H7920
		v112.998c0,138.003-25.996,255-77.002,347.002c-52.002,92.998-170,207.998-260.996,253.999c-140,70-40,66.001-1547.002,65
		C4965,5737.998,4665,5735,4630,5725z"/>
</g>
</svg>
