<?xml version="1.0" standalone="no"?>
<!DOCTYPE svg PUBLIC "-//W3C//DTD SVG 20010904//EN"
 "http://www.w3.org/TR/2001/REC-SVG-20010904/DTD/svg10.dtd">
<svg version="1.0" xmlns="http://www.w3.org/2000/svg"
 width="797.000000pt" height="797.000000pt" viewBox="0 0 797.000000 797.000000"
 preserveAspectRatio="xMidYMid meet">
<metadata>
Created by potrace 1.11, written by Peter Selinger 2001-2013
</metadata>
<g transform="translate(0.000000,797.000000) scale(0.100000,-0.100000)"
fill="#000000" stroke="none">
<path d="M60 3865 l0 -1875 215 0 215 0 0 708 0 708 108 -13 c84 -10 378 -13
1397 -10 l1290 2 75 23 c109 34 175 75 265 166 92 93 136 169 165 282 19 73
20 112 20 708 0 669 -1 676 -49 794 -63 156 -204 289 -372 350 l-74 27 -1627
3 -1628 2 0 -1875z m3195 1427 c38 -17 82 -58 103 -97 15 -27 17 -90 20 -575
2 -300 1 -573 -3 -607 -8 -75 -42 -132 -99 -165 l-41 -23 -1300 0 -1300 0 -42
23 c-24 12 -55 41 -70 64 l-28 42 -3 590 c-3 662 -5 644 68 710 24 21 54 37
77 41 21 4 43 8 48 10 6 2 579 3 1275 2 1020 -2 1271 -5 1295 -15z"/>
<path d="M4630 5725 c-211 -59 -383 -230 -439 -435 -21 -74 -21 -94 -21 -1421
l0 -1347 23 -80 c31 -105 76 -179 164 -268 84 -84 195 -145 308 -169 104 -22
2656 -22 2758 0 109 23 204 75 294 159 87 83 134 153 172 259 l26 72 3 743 3
742 -681 0 -680 0 0 -220 0 -220 465 0 465 0 0 -462 c0 -279 -4 -477 -10 -499
-16 -57 -51 -102 -100 -127 l-44 -22 -1292 0 c-889 0 -1301 3 -1321 11 -38 14
-81 56 -104 101 -18 36 -19 77 -19 1325 0 1228 1 1290 19 1328 22 49 69 91
119 105 26 8 431 10 1328 8 l1291 -3 40 -28 c65 -45 86 -94 91 -214 l5 -103
213 0 214 0 0 113 c0 138 -26 255 -77 347 -52 93 -170 208 -261 254 -140 70
-40 66 -1547 65 -1070 -1 -1370 -4 -1405 -14z"/>
</g>
</svg>
